<svg xmlns="http://www.w3.org/2000/svg" viewBox="0 0 31.93 31.99"><defs><style>.cls-1,.cls-2{fill:#ddd33d;}.cls-2{fill-rule:evenodd;}</style></defs><title>Asset 2</title><g id="Layer_2" data-name="Layer 2"><g id="Layer_1-2" data-name="Layer 1"><path class="cls-1" d="M31.86,11.57c0-2.17.28-4.9-.28-6.64a8,8,0,0,0-1.33-2.34,4.56,4.56,0,0,0-.79-.9A8.68,8.68,0,0,0,26.56.24c-1.51-.42-4.4-.16-6.25-.16H6.53c-.15.09-.43,0-.67.05A10.27,10.27,0,0,0,4.19.58,7.3,7.3,0,0,0,.84,3.53C-.13,5.14,0,7.73,0,10.34V21.83c0,3.1-.1,5.39,1.17,7.2a7.22,7.22,0,0,0,4,2.73,18,18,0,0,0,4.46.17h8.82c3.85,0,8.09.44,10.43-1.11a7.22,7.22,0,0,0,2.79-3.91c.43-1.42.22-3.51.22-5.24ZM27,27.58c-1.14.85-3.53.61-5.52.61H9.66c-2.68,0-4.48.25-5.53-1.45-.7-1.14-.44-3.56-.44-5.35V10.68c0-1.55-.27-3.74.22-4.91A3.34,3.34,0,0,1,5.59,4c.26-.11.6-.08.83-.23h14.4c2.34,0,4.89-.28,6.24.73S28.12,7.77,28.12,10V22.22C28.12,24.61,28.34,26.55,27,27.58Z"/><path class="cls-2" d="M24.56,5.93c2.34-.07,2.53,2.65.78,3.13a1.66,1.66,0,0,1-2-2.07c.19-.51.59-.67.95-1C24.46,6,24.49,6,24.56,5.93Z"/><path class="cls-1" d="M24.05,12.74C22.68,9.46,20,7.16,15.29,7.22c-.23.14-.64,0-.95.11a12.58,12.58,0,0,0-2,.61,9,9,0,0,0-4.69,5,11.39,11.39,0,0,0-.45,1.67,8.42,8.42,0,0,0,.28,3.85,8.53,8.53,0,0,0,5.08,5.69,8.29,8.29,0,0,0,3.46.67h.89c3.78-.83,6-2.49,7.31-5.75A9.38,9.38,0,0,0,24.05,12.74ZM20.93,17a8.39,8.39,0,0,1-.39,1.23,5.27,5.27,0,0,1-3.8,2.84,4.55,4.55,0,0,1-2.51-.28A5,5,0,0,1,11,14.64a5.32,5.32,0,0,1,2.84-3.3,9.68,9.68,0,0,0,1.4-.39c2.89,0,4.27,1,5.24,2.91A4.86,4.86,0,0,1,20.93,17Z"/></g></g></svg>