<svg xmlns="http://www.w3.org/2000/svg" viewBox="0 0 31.8 30.06"><defs><style>.cls-1{fill:#ddd33d;}</style></defs><title>Asset 3</title><g id="Layer_2" data-name="Layer 2"><g id="Layer_1-2" data-name="Layer 1"><path class="cls-1" d="M3.76,7.22A3.62,3.62,0,1,0,3.81,0,3.52,3.52,0,0,0,0,3.63,3.53,3.53,0,0,0,3.76,7.22Z"/><rect class="cls-1" x="0.19" y="9.59" width="7.24" height="20.47"/><path class="cls-1" d="M10.55,9.72H17.6v2.79a7.07,7.07,0,0,1,6.26-3.25C28.4,9.26,31.8,12,31.8,18V30.06H24.9V18.79c0-2.62-1-4.41-3.5-4.41a3.65,3.65,0,0,0-3.49,2.37,4.06,4.06,0,0,0-.28,1.58V30.06H10.55S10.64,11.51,10.55,9.72Z"/></g></g></svg>