<svg xmlns="http://www.w3.org/2000/svg" viewBox="0 0 92.09 104.28"><defs><style>.cls-1{fill:#fff;}.cls-2{fill:#ddd33d;}</style></defs><title>Asset 1</title><g id="Layer_2" data-name="Layer 2"><g id="Layer_1-2" data-name="Layer 1"><path class="cls-1" d="M11.73,84.11,9.37,91.46c-.57,1.76-1,3.44-1.33,4.7-.27-1.26-.74-2.86-1.33-4.7L4.35,84.11H.77L0,104H3.18s.1-4.57.24-8.33c.08-2.15,0-4.1,0-4.64.3,1.09,2.82,9.21,4,13h1.2c1.18-3.79,3.7-11.91,4-13,0,.55-.1,2.44,0,4.64.14,3.73.23,8.33.23,8.33H16l-.77-19.86Z"/><path class="cls-1" d="M27.17,84.11,22.09,104h3.63l.94-4.14h4.45l.94,4.14h3.66L30.63,84.11Zm.25,12.4L28,94.1c.37-1.62.77-3.75.91-4.77.14,1,.59,3.29.93,4.82l.54,2.36Z"/><path class="cls-1" d="M48.21,92.05c-2.16-1.16-2.84-1.9-2.84-3.09a1.73,1.73,0,0,1,1.88-1.73c1.36,0,2,.45,3.14,1.76l2.36-2.36a6.28,6.28,0,0,0-5.42-2.83,5.26,5.26,0,0,0-5.56,5.33c0,3.29,1.79,4.8,4.74,6.33,2.32,1.19,3,2.1,3,3.23a2,2,0,0,1-2.21,2.16c-1.19,0-2.47-.74-3.66-2.27l-2.41,2.58a7.42,7.42,0,0,0,5.93,3.12c3.69,0,6-2.38,6-5.67S51.64,93.9,48.21,92.05Z"/><path class="cls-1" d="M66.2,83.8c-4.62,0-6.64,4.54-6.64,10.27s2,10.21,6.59,10.21S72.76,99.74,72.76,94,70.8,83.8,66.2,83.8Zm0,16.93c-2.13,0-3-2.49-3-6.72s.83-6.67,3-6.67,3,2.5,3,6.73S68.3,100.73,66.2,100.73Z"/><path class="cls-1" d="M88.86,84.11v8.23c0,1.24.08,3.4.11,4.62-.37-1.11-1.08-2.95-1.56-4.14l-3.49-8.71H80.34V104h3.24V95.6c0-1.25,0-3.29-.06-4.51.37,1.16,1,2.78,1.5,4L88.69,104h3.4V84.11Z"/><path class="cls-2" d="M9.61,47.1a.41.41,0,0,0-.79.13L8.42,52C7.54,62.41,6.43,63.74,0,63.74V69H24.06V63.74a10.41,10.41,0,0,1-10-6.58C13.16,55.15,10.93,50.15,9.61,47.1Z"/><path class="cls-2" d="M30.93,0H4.1V5.21c5,0,11.32,3.88,14.3,10.87C19.62,18.94,41.79,69,41.79,69h3.77L53.47,51Z"/><polygon class="cls-2" points="86.27 0 68.29 0 73.89 68.95 92.09 68.95 86.27 0"/></g></g></svg>