<svg xmlns="http://www.w3.org/2000/svg" viewBox="0 0 37.79 30.94"><defs><style>.cls-1{fill:#ddd33d;}</style></defs><title>Asset 1</title><g id="Layer_2" data-name="Layer 2"><g id="Layer_1-2" data-name="Layer 1"><path class="cls-1" d="M28,24.11C15.28,36.87,0,27.85,0,27.85s7.56-.57,10.49-2.93c0,0-5.45-2.84-6.83-6.58,0,0,2.19,1.06,2.76.9,0,0-4.88-4-5.36-7.4a7.64,7.64,0,0,0,3,.48S-.08,6.07,2.36,1.6c0,0,5.47,8.61,16.27,8,0,0-.09-8.74,6.81-9.59a7.68,7.68,0,0,1,6.5,2.68L36.58.54l-2,3.74h3.17l-3.9,3.25A21.48,21.48,0,0,1,28,24.11Z"/></g></g></svg>